HIERARCHY
ROOT Hips
{
	OFFSET 0.000000 0.000000 0.000000
	CHANNELS 6 Xposition Yposition Zposition Zrotation Yrotation Xrotation 
	JOINT LHipJoint
	{
		OFFSET 0.000000 0.000000 0.000000
		CHANNELS 3 Zrotation Yrotation Xrotation
		JOINT LeftUpLeg
		{
			OFFSET 1.363060 -1.794630 0.839290
			CHANNELS 3 Zrotation Yrotation Xrotation
			JOINT LeftLeg
			{
				OFFSET 2.448110 -6.726130 0.000000
				CHANNELS 3 Zrotation Yrotation Xrotation
				JOINT LeftFoot
				{
					OFFSET 2.562200 -7.039590 0.000000
					CHANNELS 3 Zrotation Yrotation Xrotation
					JOINT LeftToeBase
					{
						OFFSET 0.157640 -0.433110 2.322550
						CHANNELS 3 Zrotation Yrotation Xrotation
						End Site
						{
							OFFSET 0.000000 0.000000 0.000000
						}
					}
				}
			}
		}
	}
	JOINT RHipJoint
	{
		OFFSET 0.000000 0.000000 0.000000
		CHANNELS 3 Zrotation Yrotation Xrotation
		JOINT RightUpLeg
		{
			OFFSET -1.305520 -1.794630 0.839290
			CHANNELS 3 Zrotation Yrotation Xrotation
			JOINT RightLeg
			{
				OFFSET -2.542530 -6.985550 0.000000
				CHANNELS 3 Zrotation Yrotation Xrotation
				JOINT RightFoot
				{
					OFFSET -2.568260 -7.056230 0.000000
					CHANNELS 3 Zrotation Yrotation Xrotation
					JOINT RightToeBase
					{
						OFFSET -0.164730 -0.452590 2.363150
						CHANNELS 3 Zrotation Yrotation Xrotation
						End Site
						{
							OFFSET 0.000000 0.000000 0.000000
						}
					}
				}
			}
		}
	}
	JOINT LowerBack
	{
		OFFSET 0.000000 0.000000 0.000000
		CHANNELS 3 Zrotation Yrotation Xrotation
		JOINT Spine
		{
			OFFSET 0.028270 2.035590 -0.193380
			CHANNELS 3 Zrotation Yrotation Xrotation
			JOINT Spine1
			{
				OFFSET 0.056720 2.048850 -0.042750
				CHANNELS 3 Zrotation Yrotation Xrotation
				JOINT Neck
				{
					OFFSET 0.000000 0.000000 0.000000
					CHANNELS 3 Zrotation Yrotation Xrotation
					JOINT Neck1
					{
						OFFSET -0.054170 1.746240 0.172020
						CHANNELS 3 Zrotation Yrotation Xrotation
						JOINT Head
						{
							OFFSET 0.104070 1.761360 -0.123970
							CHANNELS 3 Zrotation Yrotation Xrotation
							End Site
							{
								OFFSET 0.000000 0.000000 0.000000
							}
						}
					}
				}
				JOINT LeftShoulder
				{
					OFFSET 0.000000 0.000000 0.000000
					CHANNELS 3 Zrotation Yrotation Xrotation
					JOINT LeftArm
					{
						OFFSET 3.362410 1.200890 -0.311210
						CHANNELS 3 Zrotation Yrotation Xrotation
						JOINT LeftForeArm
						{
							OFFSET 4.983000 -0.000000 -0.000000
							CHANNELS 3 Zrotation Yrotation Xrotation
							JOINT LeftHand
							{
								OFFSET 3.483560 -0.000000 -0.000000
								CHANNELS 3 Zrotation Yrotation Xrotation
								JOINT LeftFingerBase
								{
									OFFSET 0.000000 0.000000 0.000000
									CHANNELS 3 Zrotation Yrotation Xrotation
									JOINT LeftHandIndex1
									{
										OFFSET 0.715260 -0.000000 -0.000000
										CHANNELS 3 Zrotation Yrotation Xrotation
										End Site
										{
											OFFSET 0.000000 0.000000 0.000000
										}
									}
								}
								JOINT LThumb
								{
									OFFSET 0.000000 0.000000 0.000000
									CHANNELS 3 Zrotation Yrotation Xrotation
									End Site
									{
										OFFSET 0.000000 0.000000 0.000000
									}
								}
							}
						}
					}
				}
				JOINT RightShoulder
				{
					OFFSET 0.000000 0.000000 0.000000
					CHANNELS 3 Zrotation Yrotation Xrotation
					JOINT RightArm
					{
						OFFSET -3.136600 1.374050 -0.404650
						CHANNELS 3 Zrotation Yrotation Xrotation
						JOINT RightForeArm
						{
							OFFSET -5.241900 -0.000000 -0.000000
							CHANNELS 3 Zrotation Yrotation Xrotation
							JOINT RightHand
							{
								OFFSET -3.444170 -0.000000 -0.000000
								CHANNELS 3 Zrotation Yrotation Xrotation
								JOINT RightFingerBase
								{
									OFFSET 0.000000 0.000000 0.000000
									CHANNELS 3 Zrotation Yrotation Xrotation
									JOINT RightHandIndex1
									{
										OFFSET -0.622530 -0.000000 -0.000000
										CHANNELS 3 Zrotation Yrotation Xrotation
										End Site
										{
											OFFSET 0.000000 0.000000 0.000000
										}
									}
								}
								JOINT RThumb
								{
									OFFSET 0.000000 0.000000 0.000000
									CHANNELS 3 Zrotation Yrotation Xrotation
									End Site
									{
										OFFSET 0.000000 0.000000 0.000000
									}
								}
							}
						}
					}
				}
			}
		}
	}
}
MOTION
Frames: 5
Frame Time: 0.008333
18.661859 18.006589 3.814804 -7.143051 -9.585738 5.288066 -6.666057 -0.474938 -0.082633 2.710203 -13.845952 -30.168263 0.249345 6.369365 18.477444 -1.874375 8.506373 3.562717 0.921900 -6.117100 -17.124700 3.935805 -1.681478 3.810577 25.405609 7.761790 21.579542 0.335019 -0.513517 3.046727 -0.780255 4.952775 10.281188 -0.030500 1.128200 -3.101500 9.941333 4.506151 -1.778755 2.986836 5.576202 -0.703493 -7.349418 3.018140 0.179262 -4.163438 -3.687287 -10.714761 1.798673 -4.749057 8.905203 0.244600 -2.420900 5.647500 -4.595122 -1.416266 -0.365871 -92.776539 14.989311 -10.598633 9.137259 -8.494290 -0.499585 -2.107309 -0.689257 19.000677 22.659715 13.368681 6.546300 -7.125000 0.000000 0.000000 -2.924500 45.960400 -0.069400 1.538874 1.845460 0.411162 85.087746 40.674512 16.768646 -19.584014 27.597136 -5.200320 0.633651 -0.860247 -7.926781 -18.289505 30.860531 -10.154300 7.125000 0.000000 0.000000 7.268700 2.953400 7.694500 
18.668870 17.992271 4.062061 -7.497123 -9.703575 5.153837 -6.613750 -0.446031 -0.031190 2.513907 -13.245009 -30.059508 0.407668 6.735390 19.406084 -2.153364 9.590056 4.527829 0.808800 -5.739200 -16.029600 3.893577 -1.708469 3.816129 25.776387 7.755865 22.618974 0.332889 -0.466368 2.869217 -0.813894 4.904889 11.254711 -0.028100 1.082300 -2.975400 10.225944 4.619557 -1.884392 3.024829 5.702009 -0.697942 -7.457757 3.093891 0.239829 -4.050852 -3.706103 -10.647068 1.837695 -4.799665 9.000346 0.235600 -2.435700 5.665200 -4.554305 -1.296652 -0.369044 -92.877065 16.067381 -15.153591 8.755793 -8.195886 -0.423964 -2.078155 -0.691153 23.189169 21.067635 14.767309 6.639000 -7.125000 0.000000 0.000000 -4.838900 47.348700 -0.281100 1.504890 1.748953 0.385578 84.675269 40.891659 17.195500 -19.988620 28.118205 -5.414730 0.646129 -0.848946 -8.739154 -18.245658 31.243421 -10.235400 7.125000 0.000000 0.000000 7.341300 3.326700 7.818000 
18.679633 17.998788 4.305664 -7.001158 -9.652454 5.048838 -6.639771 -0.416006 -0.032926 1.568440 -12.967611 -30.250209 0.584559 7.088359 20.419751 -2.586318 11.127973 4.983322 0.788100 -5.667200 -15.821800 3.846664 -1.774306 3.879859 25.074481 7.379003 24.416513 0.365685 0.325622 0.550263 -0.892180 4.545600 13.257526 -0.078200 1.803600 -4.963200 9.686032 4.623190 -1.966640 2.782015 5.703004 -0.859977 -7.410479 3.089206 0.050723 -3.834141 -3.707260 -10.644376 1.842012 -4.839466 9.307238 0.196500 -2.439900 5.766500 -4.505676 -1.162559 -0.370556 -92.863244 17.250401 -20.580121 8.298624 -7.879674 -0.354733 -2.040633 -0.533840 28.464876 19.916389 15.031080 6.335100 -7.125000 0.000000 0.000000 -6.081300 47.443400 -0.367900 1.474950 1.656040 0.360548 84.720938 40.901981 17.429667 -20.382648 28.621735 -5.629575 0.641323 -0.846883 -9.060486 -17.946318 31.644760 -10.167900 7.125000 0.000000 0.000000 7.566400 3.671300 8.104600 
18.689705 18.002244 4.529715 -6.553929 -9.407376 5.102418 -6.657207 -0.415564 -0.057327 0.848276 -12.984507 -30.587831 0.744407 7.377425 21.333629 -2.796794 11.847207 4.939942 0.885000 -5.996700 -16.774800 3.833978 -1.793746 3.920622 24.536628 7.194632 24.773944 0.365433 0.314468 0.535201 -0.964118 4.679350 14.273733 -0.249700 3.215100 -8.878200 9.139846 4.563513 -2.100271 2.622918 5.615479 -1.016108 -7.306602 3.037967 -0.104262 -3.745024 -3.750194 -10.723189 1.799407 -4.907116 9.505505 0.155800 -2.467800 5.846600 -4.491131 -1.072014 -0.376011 -92.944153 17.998814 -20.311584 7.785581 -7.031067 -0.267146 -2.069338 -0.744296 27.729280 18.648693 16.735329 6.563300 -7.125000 0.000000 0.000000 -7.829800 49.212500 -0.817900 1.453791 1.589364 0.334558 84.501967 40.893485 18.003203 -20.888672 29.253563 -5.908737 0.643401 -0.815776 -9.638932 -17.689560 31.431779 -9.954000 7.125000 0.000000 0.000000 7.681800 3.382900 8.193900 
18.696913 18.001652 4.749027 -6.270197 -9.010082 5.168029 -6.675609 -0.438043 -0.067544 0.383020 -13.086041 -30.846245 0.875041 7.592393 22.080240 -2.714056 11.628547 5.280931 0.680700 -5.275200 -14.695100 3.868720 -1.745161 3.914656 24.405073 7.356992 23.108001 0.293465 -1.069112 4.412222 -0.968767 5.234042 13.765234 -0.391800 4.019400 -11.131200 8.684067 4.464703 -2.358911 2.613693 5.458374 -1.066629 -7.091740 2.957846 -0.082929 -4.080465 -3.781424 -10.613239 2.085261 -4.915272 9.339806 0.311200 -2.469900 5.786700 -4.491265 -0.994329 -0.375082 -93.175146 18.588311 -20.040073 7.320065 -6.242616 -0.211057 -2.202172 -0.761338 26.831602 19.497976 17.315207 7.132700 -7.125000 0.000000 0.000000 -7.051100 50.005800 -0.873900 1.429107 1.517374 0.303319 84.057843 40.749049 18.702458 -21.603997 30.132328 -6.309543 0.662278 -0.769419 -10.278496 -17.899218 31.048189 -9.967900 7.125000 0.000000 0.000000 7.501500 2.999600 7.950900 
